PathFileType	4	(x/y/z)	S09_M20_T05
DataRate	CameraRate	NumFrames	NumMarkers	Units	OrigDataRate	OrigDataStartFrame	OrigNumFrames
240	240	7	51	mm	240	146	580
Frame#	Time	Sternum			R.Acromium			L.Acromium			Top.Head			R.ASIS			L.ASIS			R.PSIS			L.PSIS			R.Great.Tro			L.Great.Tro			R.Iliac.Crest			L.Iliac.Crest			V.Sacral			R.Thigh.Upper.Post			R.Thigh.Lower.Ant			R.Thigh.Lower.Post			R.Thigh.Upper.Ant			R.Knee.Lat			R.Knee.Med			R.Shank.Upper.Post			R.Shank.Lower.Ant			R.Shank.Lower.Post			R.Shank.Upper.Ant			R.Ankle.Lat			R.Ankle.Med			R.Heel.Upper			R.Heel.Med			R.Heel.Lat			R.Toe.Lat			R.Toe.Med			R.Toe.Tip			L.Thigh.Upper.Post			L.Thigh.Lower.Ant			L.Thigh.Lower.Post			L.Thigh.Upper.Ant			L.Knee.Lat			L.Knee.Med			L.Shank.Upper.Post			L.Shank.Lower.Ant			L.Shank.Lower.Post			L.Shank.Upper.Ant			L.Ankle.Lat			L.Ankle.Med			L.Heel.Upper			L.Heel.Med			L.Heel.Lat			L.Toe.Lat			L.Toe.Med			L.Toe.Tip			Cervical.Spine			Back			
		X1	Y1	Z1	X2	Y2	Z2	X3	Y3	Z3	X4	Y4	Z4	X5	Y5	Z5	X6	Y6	Z6	X7	Y7	Z7	X8	Y8	Z8	X9	Y9	Z9	X10	Y10	Z10	X11	Y11	Z11	X12	Y12	Z12	X13	Y13	Z13	X14	Y14	Z14	X15	Y15	Z15	X16	Y16	Z16	X17	Y17	Z17	X18	Y18	Z18	X19	Y19	Z19	X20	Y20	Z20	X21	Y21	Z21	X22	Y22	Z22	X23	Y23	Z23	X24	Y24	Z24	X25	Y25	Z25	X26	Y26	Z26	X27	Y27	Z27	X28	Y28	Z28	X29	Y29	Z29	X30	Y30	Z30	X31	Y31	Z31	X32	Y32	Z32	X33	Y33	Z33	X34	Y34	Z34	X35	Y35	Z35	X36	Y36	Z36	X37	Y37	Z37	X38	Y38	Z38	X39	Y39	Z39	X40	Y40	Z40	X41	Y41	Z41	X42	Y42	Z42	X43	Y43	Z43	X44	Y44	Z44	X45	Y45	Z45	X46	Y46	Z46	X47	Y47	Z47	X48	Y48	Z48	X49	Y49	Z49	X50	Y50	Z50	X51	Y51	Z51	

146	0.60417	-42.706	1161.4	251.93	-180.08	1395.9	396.5	-173.45	1407.8	94.99	-179.13	1703.7	248.25	-81.299	992.23	353.38	-90.819	994.47	106.35	-305.09	1012.4	285.71	-298.69	1027.3	198.4	-154.51	901.2	429.88	-180.5	911.17	44.537	-174.41	1066.9	402.4	-197.75	1091.1	75.819	-323.69	987.67	235.85	-59.601	667.88	420.3	48.59	606.71	383.52	-25.97	582.31	395.38	9.531	685.86	408.17	63.504	536.69	380.33	59.548	516.95	254.56	92.37	355.78	397.51	183.06	342.48	392.5	133.28	290.58	391.03	138.98	402.05	399.6	267.96	144.97	384.39	289.78	177.7	302.03	237.95	88.206	325.38	270.58	75.743	298.7	259.44	64.808	360.95	378.21	160.49	432.29	413.76	209.13	336.69	430.76	248.83	385.83	-311.44	684.23	103.78	-261.94	567.67	100.49	-324.65	594.68	122.14	-250.39	653.84	77.739	-298.53	494.74	114.06	-270.67	502.56	244.6	-383.67	378.35	107.03	-349.78	274.74	126.27	-406.35	305.57	117.69	-327.58	349.08	116.68	-446.06	109.57	150.27	-439.01	101.14	244.4	-529.24	79.427	200.22	-519.54	51.336	231.22	-530	52.97	170.22	-356.29	41.706	118.13	-319.15	36.169	227.95	-266.24	47.08	168.22	-255.79	1452.7	255.65	-304.82	1186.7	232.01
147	0.60833	-37.017	1160.1	252.29	-174.48	1394.7	397.01	-167.97	1406.6	95.388	-173.72	1702.5	248.8	-75.342	991.19	353.64	-85.661	993.18	106.59	-299.38	1011.6	286.59	-293.15	1026.6	199.27	-148.31	900.36	430.44	-176.26	910.22	45.212	-168.48	1065.9	402.94	-192.5	1090.1	76.232	-318.19	987.01	236.85	-52.702	667.42	420.93	55.391	606.45	383.53	-19.004	581.89	395.92	16.3	685.54	408.32	70.368	536.4	380.51	65.916	516.53	254.83	99.481	355.41	397.71	190.17	342.22	392.49	140.45	290.26	391.1	146.03	401.72	399.7	275.23	144.83	384.19	296.85	177.63	301.77	245.35	87.874	325.22	278.01	75.553	298.48	267	64.57	360.73	385.46	160.75	431.92	420.72	209.52	336.28	437.55	249.3	385.35	-307.81	683.99	104.78	-258.97	567.16	100.81	-321.33	594.5	122.94	-247.1	653.34	78.228	-295.72	494.37	114.48	-267.07	501.67	244.82	-381.41	378.53	107.41	-348.21	274.67	126.5	-404.58	305.9	118.04	-325.52	348.88	116.96	-445.6	110.05	150.48	-438.49	101.51	244.56	-528.98	79.961	200.41	-519.35	51.805	231.38	-529.83	53.546	170.39	-356.2	41.71	118.17	-319.01	36.109	227.93	-266.07	46.78	168.17	-250.3	1451.6	256.12	-299.23	1185.5	232.51
148	0.6125	-31.289	1158.9	252.66	-168.85	1393.6	397.54	-162.45	1405.5	95.797	-168.3	1701.4	249.34	-69.352	990.16	353.9	-80.493	991.87	106.84	-293.63	1010.9	287.51	-287.59	1025.8	200.16	-142.06	899.58	431.03	-172	909.26	45.906	-162.52	1065	403.49	-187.23	1088.9	76.655	-312.66	986.33	237.87	-45.69	667.01	421.57	62.31	606.29	383.52	-11.903	581.53	396.46	23.167	685.29	408.45	77.334	536.15	380.66	72.41	516.18	255.08	106.46	355.03	397.89	197.11	341.82	392.46	147.39	289.87	391.17	153	401.32	399.78	282.03	144.46	384	303.47	177.26	301.5	252.19	87.319	325.09	284.88	75.088	298.28	273.98	64.103	360.56	392.25	160.67	431.55	427.27	209.46	335.85	443.98	249.34	384.84	-304.1	683.73	105.83	-255.92	566.64	101.17	-317.93	594.29	123.79	-243.74	652.82	78.759	-292.83	493.99	114.94	-263.39	500.76	245.08	-379.08	378.73	107.83	-346.59	274.61	126.77	-402.75	306.24	118.44	-323.39	348.67	117.28	-445.12	110.57	150.71	-437.94	101.9	244.73	-528.69	80.562	200.62	-519.14	52.339	231.55	-529.65	54.185	170.58	-356.1	41.721	118.22	-318.85	36.053	227.91	-265.88	46.483	168.12	-244.79	1450.5	256.6	-293.62	1184.3	233.01
149	0.61667	-25.524	1157.7	253.04	-163.19	1392.4	398.08	-156.88	1404.3	96.218	-162.87	1700.3	249.89	-63.327	989.16	354.17	-75.314	990.54	107.1	-287.85	1010.1	288.45	-282.01	1025	201.08	-135.78	898.85	431.64	-167.71	908.29	46.619	-156.51	1064.1	404.05	-181.93	1087.8	77.089	-307.09	985.64	238.93	-38.576	666.67	422.22	69.337	606.21	383.49	-4.6769	581.24	397.01	30.125	685.12	408.57	84.397	535.93	380.76	79.027	515.89	255.33	113.3	354.64	398.06	203.89	341.27	392.41	154.09	289.42	391.23	159.91	400.83	399.83	288.36	143.86	383.81	309.65	176.59	301.23	258.49	86.539	324.99	291.19	74.349	298.13	280.39	63.41	360.43	398.58	160.26	431.18	433.42	208.98	335.39	450.05	248.95	384.27	-300.31	683.44	106.9	-252.78	566.1	101.59	-314.42	594.06	124.68	-240.3	652.28	79.33	-289.86	493.6	115.45	-259.63	499.86	245.39	-376.68	378.94	108.29	-344.92	274.56	127.07	-400.85	306.6	118.87	-321.2	348.46	117.64	-444.62	111.13	150.95	-437.37	102.32	244.91	-528.37	81.232	200.83	-518.91	52.941	231.73	-529.45	54.895	170.77	-355.99	41.74	118.28	-318.7	36.002	227.9	-265.69	46.19	168.06	-239.24	1449.4	257.09	-287.97	1183.2	233.5
150	0.62083	-19.721	1156.4	253.44	-157.51	1391.3	398.63	-151.27	1403.1	96.653	-157.42	1699.2	250.42	-57.262	988.18	354.45	-70.123	989.22	107.36	-282.03	1009.3	289.41	-276.41	1024.2	202.02	-129.44	898.18	432.28	-163.37	907.31	47.352	-150.45	1063.2	404.63	-176.61	1086.7	77.535	-301.48	984.93	240.03	-31.37	666.36	422.87	76.464	606.21	383.44	2.6616	581	397.56	37.165	685.02	408.68	91.548	535.74	380.83	85.761	515.67	255.56	120.01	354.24	398.22	210.51	340.58	392.33	160.56	288.9	391.29	166.75	400.25	399.86	294.23	143.02	383.65	315.4	175.63	300.96	264.25	85.54	324.94	296.96	73.339	298.04	286.24	62.496	360.37	404.48	159.52	430.81	439.18	208.07	334.9	455.78	248.14	383.65	-296.43	683.13	108.02	-249.55	565.55	102.06	-310.82	593.82	125.6	-236.78	651.73	79.943	-286.8	493.19	116	-255.8	498.95	245.75	-374.21	379.16	108.8	-343.21	274.52	127.4	-398.9	306.99	119.35	-318.94	348.26	118.03	-444.08	111.74	151.21	-436.77	102.77	245.11	-528.01	81.978	201.06	-518.66	53.617	231.93	-529.22	55.678	170.98	-355.88	41.768	118.34	-318.53	35.958	227.89	-265.5	45.9	168.01	-233.66	1448.3	257.59	-282.28	1182	234
151	0.625	-13.883	1155.2	253.85	-151.8	1390.2	399.2	-145.61	1402	97.104	-151.97	1698.2	250.96	-51.156	987.23	354.72	-64.919	987.89	107.62	-276.17	1008.6	290.4	-270.79	1023.4	202.99	-123.06	897.56	432.93	-158.99	906.31	48.102	-144.35	1062.3	405.23	-171.27	1085.5	77.994	-295.83	984.2	241.15	-24.081	666.1	423.52	83.678	606.27	383.36	10.099	580.81	398.09	44.277	684.97	408.78	98.779	535.58	380.86	92.601	515.51	255.77	126.59	353.82	398.36	216.98	339.75	392.23	166.8	288.31	391.36	173.52	399.6	399.85	299.65	141.97	383.51	320.73	174.38	300.68	269.5	84.33	324.94	302.21	72.071	297.99	291.56	61.37	360.36	409.94	158.47	430.45	444.55	206.75	334.4	461.17	246.95	382.98	-292.48	682.79	109.17	-246.24	564.99	102.57	-307.11	593.56	126.57	-233.18	651.16	80.595	-283.66	492.79	116.6	-251.89	498.05	246.17	-371.68	379.4	109.35	-341.44	274.5	127.77	-396.9	307.39	119.86	-316.63	348.06	118.46	-443.52	112.4	151.49	-436.14	103.25	245.32	-527.62	82.802	201.29	-518.38	54.37	232.13	-528.97	56.541	171.19	-355.77	41.805	118.41	-318.35	35.92	227.88	-265.3	45.615	167.96	-228.04	1447.2	258.1	-276.56	1180.9	234.49
152	0.62917	-8.0091	1154	254.28	-146.05	1389.1	399.78	-139.9	1400.9	97.574	-146.51	1697.1	251.5	-45.003	986.32	355	-59.698	986.56	107.88	-270.27	1007.8	291.41	-265.14	1022.5	203.98	-116.61	896.98	433.6	-154.55	905.31	48.87	-138.2	1061.5	405.83	-165.91	1084.4	78.467	-290.14	983.46	242.31	-16.723	665.87	424.15	90.967	606.39	383.27	17.622	580.66	398.59	51.451	684.97	408.86	106.08	535.44	380.85	99.538	515.4	255.96	133.03	353.39	398.5	223.28	338.78	392.1	172.82	287.65	391.44	180.21	398.86	399.82	304.64	140.7	383.38	325.64	172.85	300.41	274.25	82.924	324.98	306.94	70.561	298	296.35	60.046	360.41	414.99	157.13	430.1	449.55	205.05	333.87	466.23	245.37	382.26	-288.43	682.45	110.35	-242.84	564.43	103.13	-303.31	593.3	127.57	-229.5	650.58	81.284	-280.44	492.38	117.25	-247.92	497.16	246.63	-369.08	379.66	109.94	-339.62	274.5	128.16	-394.83	307.83	120.41	-314.25	347.87	118.93	-442.93	113.11	151.79	-435.48	103.76	245.54	-527.19	83.708	201.53	-518.08	55.204	232.35	-528.7	57.486	171.42	-355.65	41.852	118.48	-318.17	35.889	227.87	-265.09	45.336	167.9	-222.38	1446.2	258.62	-270.8	1179.8	235
